# xmcd
#
# Track frame offsets:
#   150
#   14716
#   30118
#   46965
#   62951
#   79585
#   93302
#   111591
#   124038
#   135569
#   151715
#   163903
#   177752
#   192035
#   205379
#   223535
#   237490
#   255564
#   269809
#   283724
#   303035
#
# Disc length: 4324 seconds
#
# Revision: 0
# Processed by: cddbd v1.4PL0 Copyright (c) Steve Scherf et al.
# Submitted via: uFREEDB ActiveX Control 1.5
#
DISCID=2810e215
DTITLE=Porto seguro Vol.1 - Ba
DYEAR=1999
DGENRE=Blues
TTITLE0=O Baile do Gorila
TTITLE1=Na Madeira
TTITLE2=Festa do Gueto
TTITLE3=Na Manteiga
TTITLE4=Overdose de Carinho
TTITLE5=Empinadinho
TTITLE6=Fissura
TTITLE7=Pistoleira
TTITLE8=Morto muito Louco
TTITLE9=Timbalando
TTITLE10=Bateu Levou
TTITLE11=Atrás de Você
TTITLE12=Rolo Compressor
TTITLE13=Dança do Denguinho
TTITLE14=Casa do Harmonia
TTITLE15=Pra Rebolar Bumbum
TTITLE16=Se Joga
TTITLE17=Planeta Xuxa
TTITLE18=Se Ligue
TTITLE19=Chupeta do Trem
TTITLE20=Carimba
EXTD=
EXTT0=
EXTT1=
EXTT2=
EXTT3=
EXTT4=
EXTT5=
EXTT6=
EXTT7=
EXTT8=
EXTT9=
EXTT10=
EXTT11=
EXTT12=
EXTT13=
EXTT14=
EXTT15=
EXTT16=
EXTT17=
EXTT18=
EXTT19=
EXTT20=
PLAYORDER=
